<?xml version="1.0" standalone="no"?><!DOCTYPE svg PUBLIC "-//W3C//DTD SVG 1.1//EN" "http://www.w3.org/Graphics/SVG/1.1/DTD/svg11.dtd"><svg t="1586441708899" class="icon" viewBox="0 0 1024 1024" version="1.1" xmlns="http://www.w3.org/2000/svg" p-id="5306" xmlns:xlink="http://www.w3.org/1999/xlink" width="200" height="200"><defs><style type="text/css"></style></defs><path d="M512 1024C229.229714 1024 0 794.770286 0 512S229.229714 0 512 0s512 229.229714 512 512-229.229714 512-512 512z m231.277714-391.314286c19.456 8.704 23.771429-0.902095 23.771429-0.902095 34.182095-127.634286-33.54819-258.194286-153.429333-307.102476l4.63238-17.164191 1.292191 0.341334c14.677333 3.900952 27.452952 5.339429 28.403809 3.169524l0.560762-2.121143c6.656-24.697905-15.311238-51.98019-49.054476-60.952381-33.743238-8.97219-66.511238 3.754667-73.167238 28.403809l-0.585143 2.121143c-0.24381 2.364952 11.556571 7.460571 26.233905 11.361524l1.170286 0.316952-4.632381 17.188572c-128.414476-17.115429-252.732952 62.342095-287.402667 189.805714 0 0 1.243429 10.48381 12.848762 12.946286l469.357714 122.611809zM335.11619 589.287619c-6.339048 18.578286 6.095238 27.233524-3.047619 25.429333-9.118476-1.828571-13.58019 8.240762-10.678857 19.358477 4.022857 15.457524 14.677333 24.868571 25.965715 24.868571H681.691429c8.533333-0.438857 5.022476-8.094476-0.121905-9.411048l-321.365334-80.993523s-16.822857-3.437714-25.063619 20.74819z m441.758477 163.011048c15.018667 0 27.209143-12.092952 27.209143-27.014096 0-14.921143-12.190476-26.965333-27.209143-26.965333h-530.285715A27.062857 27.062857 0 0 0 219.428571 725.26019c0 14.921143 12.190476 27.014095 27.160381 27.014096h530.285715z" fill="#1aaa29" p-id="5307"></path></svg>