<?xml version="1.0" standalone="no"?><!DOCTYPE svg PUBLIC "-//W3C//DTD SVG 1.1//EN" "http://www.w3.org/Graphics/SVG/1.1/DTD/svg11.dtd"><svg t="1586441794448" class="icon" viewBox="0 0 1024 1024" version="1.1" xmlns="http://www.w3.org/2000/svg" p-id="7586" xmlns:xlink="http://www.w3.org/1999/xlink" width="200" height="200"><defs><style type="text/css"></style></defs><path d="M512 1024c-56.096-89.344-97.184-137.728-123.296-145.184C201.216 825.248 64 652.672 64 448 64 200.576 264.576 0 512 0s448 200.576 448 448c0 203.168-135.232 374.72-320.608 429.632-26.88 7.968-69.376 56.768-127.392 146.368z m181.376-290.24a40.384 40.384 0 1 0 80.768 0V157.184a32 32 0 0 0-30.752-32c-87.2-3.36-130.784 37.952-130.784 123.968v80.768a120.8 120.8 0 0 0 80.768 113.728v290.112z m-186.688-282.688c22.304 0 40.384-18.08 40.384-40.384V128v40.384a40.384 40.384 0 1 0-80.768 0V370.304H425.92V168.384a40.384 40.384 0 1 0-80.768 0V370.304H304.768V168.384a40.384 40.384 0 1 0-80.768 0V128h80.768H224v282.688c0 22.304 18.08 40.384 40.384 40.384h80.768v282.688a40.384 40.384 0 1 0 80.768 0v-282.688h80.768z" p-id="7587" fill="#1279db"></path></svg>