<?xml version="1.0" standalone="no"?><!DOCTYPE svg PUBLIC "-//W3C//DTD SVG 1.1//EN" "http://www.w3.org/Graphics/SVG/1.1/DTD/svg11.dtd"><svg t="1586441742825" class="icon" viewBox="0 0 1024 1024" version="1.1" xmlns="http://www.w3.org/2000/svg" p-id="6420" xmlns:xlink="http://www.w3.org/1999/xlink" width="200" height="200"><defs><style type="text/css"></style></defs><path d="M512 512m-512 0a512 512 0 1 0 1024 0 512 512 0 1 0-1024 0Z" fill="#F84900" p-id="6421"></path><path d="M190.800441 457.24366h642.963616v28.224918H190.800441zM661.027563 730.46086H362.972437l-33.869901 86.932745h365.794928zM220.718853 508.61301c12.418964 85.23925 67.739802 158.059537 145.640574 198.703418h289.587651c77.900772-40.643881 134.915105-113.464168 145.640574-198.703418H220.718853zM171.042999 567.320838c-7.338479 0-14.112459 7.338479-14.112459 14.112459 0 7.338479 5.080485 14.112459 14.112459 14.112458h57.014333c-5.080485-9.031974-9.031974-19.757442-12.418964-28.224917h-44.595369zM852.957001 567.320838c7.338479 0 14.112459 7.338479 14.112459 14.112459 0 7.338479-5.080485 14.112459-14.112459 14.112458H795.942668c5.080485-9.031974 9.031974-19.757442 12.418964-28.224917h44.595369zM517.644983 410.954796l-15.805953-12.418964c23.144432-32.176406 19.757442-44.595369 17.499449-55.320838-3.38699-12.418964-9.031974-23.144432-15.805954-33.8699-7.338479-12.418964-15.805954-24.837927-17.499449-40.643881-3.38699-28.224917 12.418964-49.675854 26.531422-62.094818l14.112459 14.112458c-15.805954 17.499449-23.144432 32.176406-21.450937 46.288865 1.693495 12.418964 7.338479 21.450937 14.112459 33.869901 7.338479 10.725469 14.112459 23.144432 17.499448 38.950385 5.644983 15.805954 7.338479 35.563396-19.192944 71.126792M442.566703 437.486218l-15.805953-12.418963c23.144432-28.224917 19.757442-40.643881 15.805953-51.36935-3.38699-12.418964-9.031974-21.450937-15.805953-29.918412-7.338479-12.418964-15.805954-23.144432-17.499449-38.950386-3.38699-26.531422 14.112459-46.288864 26.531422-60.401323l14.112459 14.112459c-15.805954 15.805954-23.144432 28.224917-21.450937 42.337376 1.693495 10.725469 7.338479 19.757442 14.112458 29.918412 7.338479 10.725469 14.112459 21.450937 17.499449 37.256891 5.644983 18.063947 7.338479 35.563396-17.499449 69.433296M593.85226 437.486218l-15.805953-12.418963c23.144432-29.918412 19.757442-40.643881 15.805953-51.36935-3.38699-12.418964-9.031974-21.450937-15.805953-29.918412-7.338479-12.418964-15.805954-23.144432-17.499449-38.950386-3.38699-26.531422 14.112459-47.982359 26.531422-60.401323l14.112459 14.112459c-15.805954 15.805954-23.144432 28.224917-21.450937 42.337376 1.693495 10.725469 7.338479 19.757442 14.112458 29.918412 7.338479 10.725469 14.112459 21.450937 17.499449 37.256891 5.644983 18.063947 7.338479 35.563396-17.499449 69.433296" fill="#FFFFFF" p-id="6422"></path></svg>