<?xml version="1.0" standalone="no"?><!DOCTYPE svg PUBLIC "-//W3C//DTD SVG 1.1//EN" "http://www.w3.org/Graphics/SVG/1.1/DTD/svg11.dtd"><svg t="1586441672339" class="icon" viewBox="0 0 1024 1024" version="1.1" xmlns="http://www.w3.org/2000/svg" p-id="4676" xmlns:xlink="http://www.w3.org/1999/xlink" width="200" height="200"><defs><style type="text/css"></style></defs><path d="M512 9.142857A502.857143 502.857143 0 1 1 9.142857 512 502.857143 502.857143 0 0 1 512 9.142857z m301.714286 217.289143a19.885714 19.885714 0 0 0-28.077715-0.987429c-0.329143 0.301714-0.612571 0.749714-0.914285 1.097143l-0.128-0.137143-88.082286 82.166858a164.964571 164.964571 0 0 0-218.249143 5.878857c-32.740571 30.491429-52.379429 83.254857-45.549714 119.707428-36.992-1.572571-89.901714 6.546286-122.596572 36.992-61.577143 57.371429-61.851429 160.978286-13.714285 227.410286l-87.451429 77.942857v0.045714c-0.137143 0.128-0.32 0.210286-0.466286 0.347429-7.963429 7.515429-13.933714 15.149714-6.509714 23.158857a18.432 18.432 0 0 0 26.797714-1.408c0.137143-0.128 0.228571-0.310857 0.374858-0.438857l86.592-80.777143a164.717714 164.717714 0 0 0 219.209142-5.083428 136.539429 136.539429 0 0 0 45.412572-119.625143c35.657143 14.098286 211.2-31.369143 166.802286-209.371429h-0.091429c6.171429 16.566857-6.198857-31.387429-32-7.469714-5.686857 5.339429-0.228571 6.518857 1.874286 13.531428h-0.091429c55.954286 169.6-139.885714 177.563429-137.846857 177.636572a124.571429 124.571429 0 0 1-87.277714-39.780572c-47.122286-50.541714-43.885714-143.936 6.692571-191.149714a124.544 124.544 0 0 1 89.846857-33.536c69.403429 8.32 86.500571 23.405714 106.505143 48.064l109.924572-102.537143-0.091429-0.091428a8.758857 8.758857 0 0 0 1.252571-0.914286c7.963429-7.478857 11.529143-9.444571 7.753143-20.772571zM547.876571 594.422857a102.912 102.912 0 0 1-33.014857 96.32c-24.502857 22.857143-70.4 34.304-103.808 33.133714a124.635429 124.635429 0 0 1-87.332571-39.826285c-47.122286-50.596571-43.885714-143.936 6.692571-191.085715 47.451429-32.402286 63.149714-27.529143 96.630857-26.358857 0.630857 0 1.216 0 1.828572 0.109715-11.977143 23.936 70.747429 130.944 119.030857 127.725714z m0 0" fill="#EB8900" p-id="4677"></path></svg>