<?xml version="1.0" standalone="no"?><!DOCTYPE svg PUBLIC "-//W3C//DTD SVG 1.1//EN" "http://www.w3.org/Graphics/SVG/1.1/DTD/svg11.dtd"><svg t="1586441759186" class="icon" viewBox="0 0 1024 1024" version="1.1" xmlns="http://www.w3.org/2000/svg" p-id="6610" xmlns:xlink="http://www.w3.org/1999/xlink" width="200" height="200"><defs><style type="text/css"></style></defs><path d="M954.315 435.066c-2.707-4.648-7.353-8.745-12.036-11.547-10.479-6.27-20.083-0.948-20.612 11.214-0.576 13.256-6.732 22.043-19.248 26.18-6.151 2.034-12.385 4.353-18.751 5.105-22.819 2.695-45.715 4.733-68.573 7.102-18.274 1.894-36.55 4.283-53.241 12.467-13.706 6.721-27.687 7.842-42.323 4.956-19.246-3.796-37.982-3.324-56.227 5.149-10.15 4.713-16.517 11.105-14.7 23.155-6.845-2.479-13.273-5.227-19.94-7.149-26.511-7.644-51.365-5.348-74.812 10.818-26.204 18.068-53.657 34.175-82.519 47.774-47.847 22.544-98.301 35.128-150.825 40.132-46.307 4.411-92.601 3.914-138.765-1.101-31.945-3.471-63.73-8.424-95.574-12.807-8.254-1.136-15.974 2.488-19.723 9.664-3.746 7.169-2.542 15.212 2.977 21.285 7.172 7.892 14.313 15.816 21.323 23.852 25.263 28.958 52.144 56.178 82.939 79.392 36.413 27.449 77.405 45.502 120.496 59.182 74.898 23.778 151.195 33.14 229.334 20.476 48.867-7.92 94.132-25.155 134.654-54.024 22.562-16.074 42.4-35.029 59.318-56.955 14.462-18.743 19.015-40.325 17.194-63.669 0.596 0.234 1.108 0.328 1.492 0.601 10.647 7.559 20.266 5.551 25.851-6.044 4.252-8.827 8.477-17.826 11.214-27.187 4.102-14.032 6.973-28.429 10.205-42.707 2.461-10.87 8.172-18.893 19.099-22.378 14.734-4.699 29.39-9.732 44.326-13.693 24.134-6.4 48.532-11.798 72.693-18.101 14.019-3.657 25.612-11.378 33.03-24.18 8.842-15.262 10.9-31.203 1.724-46.962zM708.311 660.675c-1.602 9.37-6.015 17.563-11.955 24.987-38.476 48.089-88.27 78.396-147.517 93.718-51.575 13.338-103.772 14.335-156.309 7.206-55.556-7.539-108.697-23.195-158.963-48.116-31.658-15.696-59.338-37.111-84.34-61.846-15.274-15.111-29.432-31.349-44.076-47.095-1.099-1.182-2.082-2.471-3.99-4.751 15.687 2.14 29.844 4.221 44.04 5.983 63.716 7.905 127.523 10.668 191.513 3.28 78.528-9.067 149.915-37.222 215.707-80.42 4.876-3.201 10.016-6.049 14.638-9.578 18.454-14.092 38.503-14.304 59.249-6.781 28.123 10.197 49.423 29.369 66.61 53.166 15.162 20.99 19.742 44.803 15.393 70.247z m148.74-165.225c-16.485 4.564-33.013 8.979-49.431 13.772-5.726 1.672-11.174 4.292-16.761 6.45-19.205 7.42-28.393 22.641-32.52 41.781-2.447 11.35-4.822 22.715-7.862 34.258-14.468-32.604-39.088-55.836-68.049-76.07 7.598-2.822 14.729-2.949 21.951-1.951 14.337 1.982 28.637 5.225 43.191 2.468 6.009-1.138 12.276-2.294 17.69-4.944 19.144-9.372 39.681-12.158 60.475-13.993 10.434-0.92 20.901-1.467 31.353-2.182l-0.037 0.411z" p-id="6611" fill="#d81e06"></path><path d="M316.549 386.716c4.763 21.43 11.365 42.467 15.716 63.968 3.402 16.811 1.538 33.549-7.987 48.65-6.93 10.986-1.638 20.858 11.392 21.315 1.828 0.064 3.678 0.054 5.493-0.147 34.067-3.759 72.18-30.93 64.381-83.078-2.751-18.394-9.918-35.161-18.675-51.366-15.16-28.052-8.888-58.35 18.815-84.709-0.434 20.263 3.437 39.797 7.812 59.293 6.448 28.737 13.714 57.349 18.655 86.35 5.088 29.868 1.495 58.776-16.876 84.467-5.287 7.394-1.468 16.464 7.302 18.929 2.367 0.665 4.938 1.025 7.388 0.917 29.576-1.311 54.498-13.377 74.889-34.29 24.569-25.198 30.324-56.123 24.798-89.831-3.761-22.942-12.842-43.983-23.499-64.463-15.663-30.099-15.606-60.314-0.135-90.514 7.682-14.996 18.132-27.881 29.962-39.757 4.537-4.555 5.504-10.065 3.029-15.09-2.356-4.784-6.971-7.412-12.794-6.863-19.785 1.865-39.345 5.046-58.141 11.703-32.043 11.348-55.461 30.813-61.414 67.626-3.831-6.985-9.2-9.306-15.632-7.766-14.043 3.361-28.476 5.904-41.839 11.116-24.165 9.425-38.6 27.525-38.38 54.176 0.109 13.149 2.866 26.434 5.74 39.364z m115.17-94.367c2.449-16.408 11.061-28.662 25.051-37.249 11.733-7.202 24.557-11.511 38.603-14.428-3.811 6.47-7.49 12.176-10.644 18.158-20.475 38.836-20.512 77.801-0.263 116.725 9.965 19.155 18.349 38.843 21.189 60.457 5.62 42.761-16.402 71.86-54.063 85.966-0.563 0.211-1.245 0.101-1.028 0.087 2.516-11.967 5.844-23.812 7.372-35.885 3.223-25.458-0.812-50.512-6.399-75.296-5.783-25.649-12.191-51.158-17.843-76.834-3.015-13.702-4.07-27.662-1.975-41.701z m-88.935 34.96c5.54-6.511 12.781-10.243 21.121-13.211-2.394 6.377-4.979 12.112-6.714 18.093-6.759 23.292-3.354 45.487 8.018 66.624 6.976 12.966 12.714 26.351 15.376 40.94 3.856 21.13-3.819 39.071-21.029 48.763-0.991 0.558-2.045 1.006-3.666 1.796 0.766-5.242 1.633-9.898 2.101-14.594 2.188-21.973-2.728-43.018-8.376-63.993-4.538-16.854-9.328-33.675-12.917-50.74-2.458-11.678-2.455-23.639 6.086-33.678z" p-id="6612" fill="#d81e06"></path><path d="M217.047 476.462c5.091 29.864 1.522 58.781-16.874 84.461-5.481 7.651-1.231 17.708 8.156 19.157 6.468 0.998 13.349 1.013 19.821 0.014 42.973-6.632 87.673-37.956 88.013-98.43-0.558-6.3-0.866-12.635-1.719-18.895-3.156-23.171-10.694-45.031-21.263-65.746-18.114-35.503-18.661-70.452 3.174-104.353 7.251-11.257 16.689-21.122 25.302-31.478 3.579-4.304 4.511-8.821 2.329-13.886-2.125-4.933-6.821-7.639-12.53-7.307-2.823 0.164-5.633 0.591-8.444 0.941-21.726 2.707-43.121 6.806-63.11 16.188-32.439 15.225-49.159 40.541-49.267 76.702-0.057 19.172 3.609 37.733 7.741 56.291 6.401 28.746 13.728 57.342 18.671 86.341z m-0.737-152.739c2.178-18.233 11.861-31.471 27.667-40.412 11.205-6.339 23.227-10.404 35.97-12.966-4.661 8.468-9.624 16.368-13.523 24.761-17.273 37.183-14.829 73.941 3.005 110.26 10.7 21.79 19.193 44.291 21.049 68.797 3.107 41.044-19.164 67.79-54.959 78.783-0.416 0.128-0.919-0.029-0.999-0.033 2.487-9.845 5.505-19.511 7.311-29.399 4.194-22.963 2.185-45.926-2.561-68.512-5.747-27.352-12.731-54.442-18.897-81.709-3.685-16.295-6.067-32.795-4.063-49.57z" p-id="6613" fill="#d81e06"></path></svg>