<?xml version="1.0" standalone="no"?><!DOCTYPE svg PUBLIC "-//W3C//DTD SVG 1.1//EN" "http://www.w3.org/Graphics/SVG/1.1/DTD/svg11.dtd"><svg t="1586441913605" class="icon" viewBox="0 0 1024 1024" version="1.1" xmlns="http://www.w3.org/2000/svg" p-id="10187" xmlns:xlink="http://www.w3.org/1999/xlink" width="200" height="200"><defs><style type="text/css"></style></defs><path d="M709.694061 275.704242a312.537212 312.537212 0 0 1 84.278303 78.630788c-52.441212 110.995394-172.776727 188.540121-312.816485 188.540122-188.291879 0-340.96097-140.25697-340.96097-313.188849h440.506182c14.491152 1.737697 28.672 4.437333 42.511515 8.098909L655.39103 248.242424c8.005818 3.04097 15.763394 6.454303 23.427879 10.146909l30.875152 17.34594z" fill="#F95858" p-id="10188"></path><path d="M623.119515 253.98303a15.32897 15.32897 0 0 1-4.12703-0.527515c-12.722424-3.413333-26.065455-5.957818-39.625697-7.633454l-167.284364 0.03103a16.073697 16.073697 0 0 1 0-32.147394h168.618667c0.744727 0 1.458424 0 2.172121 0.155151 14.522182 1.706667 29.509818 4.561455 44.373333 8.471273a16.042667 16.042667 0 0 1-4.096 31.650909m55.544243 20.635152a15.546182 15.546182 0 0 1-7.012849-1.644606c-7.447273-3.568485-14.894545-6.826667-22.155636-9.619394a16.135758 16.135758 0 0 1-9.18497-20.790303 15.980606 15.980606 0 0 1 20.759273-9.216c9.24703 3.568485 17.314909 7.105939 24.731152 10.736485a15.980606 15.980606 0 0 1 7.447272 21.441939 16.197818 16.197818 0 0 1-14.584242 9.091879" fill="#000202" p-id="10189"></path><path d="M678.725818 270.429091a11.481212 11.481212 0 0 1-5.18206-1.210182c-7.261091-3.475394-14.832485-6.826667-22.49697-9.774545a11.915636 11.915636 0 0 1 8.595394-22.186667c8.285091 3.196121 16.508121 6.733576 24.327757 10.581333a11.884606 11.884606 0 0 1-5.275151 22.590061m-55.544243-20.635152a11.791515 11.791515 0 0 1-3.10303-0.372363 294.94303 294.94303 0 0 0-40.153212-7.757576H412.082424a11.915636 11.915636 0 0 1 0-23.769212h168.618667a323.056485 323.056485 0 0 1 45.459394 8.471273 11.946667 11.946667 0 0 1-3.04097 23.427878" fill="#000202" p-id="10190"></path><path d="M481.062788 559.041939C284.237576 559.041939 124.121212 411.337697 124.121212 229.779394A16.135758 16.135758 0 0 1 140.194909 213.705697h73.324606a16.104727 16.104727 0 0 1 0 32.147394H156.765091c9.18497 157.944242 150.745212 281.041455 324.390788 281.041454 125.486545 0 240.577939-66.932364 294.043151-170.697697a296.308364 296.308364 0 0 0-74.007272-66.932363 15.980606 15.980606 0 0 1 8.626424-29.66497c3.04097 0 5.988848 0.868848 8.564363 2.482424a328.207515 328.207515 0 0 1 88.622546 82.757819c3.475394 4.716606 4.096 11.170909 1.613576 16.352969-56.909576 120.180364-185.499152 197.849212-327.555879 197.849212" fill="#000202" p-id="10191"></path><path d="M481.062788 554.852848c-194.56 0-352.752485-145.842424-352.752485-325.073454 0-6.547394 5.337212-11.884606 11.884606-11.884606h73.324606a11.915636 11.915636 0 0 1 0 23.769212H152.358788c6.826667 160.612848 151.645091 289.419636 328.76606 289.419636 128.775758 0 245.232485-68.57697 298.97697-175.352242a300.06303 300.06303 0 0 0-76.706909-70.004364 11.915636 11.915636 0 0 1 12.722424-20.076606 323.646061 323.646061 0 0 1 87.505455 81.671758 11.884606 11.884606 0 0 1 1.179151 12.101818c-56.226909 118.721939-183.296 195.428848-323.770181 195.428848" fill="#000202" p-id="10192"></path><path d="M853.953939 533.721212c0-12.31903-0.899879-24.203636-2.296242-35.653818l-7.354182-38.260364v-0.186182c0.093091 1.923879 8.378182 189.377939-243.587879 235.923394h-0.093091c-20.635152 33.202424-53.27903 65.380848-91.16703 90.732606v0.093091c146.214788 36.491636 222.487273-9.867636 222.487273-9.867636l44.125091-40.494545a301.180121 301.180121 0 0 0 77.88606-202.255516" fill="#F4702A" p-id="10193"></path><path d="M315.081697 735.573333l-71.245576 101.686303h142.522182z" fill="#F95858" p-id="10194"></path><path d="M140.194909 246.411636A16.135758 16.135758 0 0 1 124.121212 230.337939a16.104727 16.104727 0 1 1 16.073697 16.073697zM550.477576 821.154909c158.440727 0 287.340606-128.868848 287.340606-287.340606 0-66.59103-24.948364-119.466667-42.201212-148.138667-43.132121 74.069333-116.363636 130.637576-202.938182 156.889212 48.407273 31.340606 49.834667 75.403636 46.11103 99.607273-9.867636 64.046545-74.627879 137.153939-156.920242 178.982788h68.576969zM361.813333 853.333333a16.104727 16.104727 0 0 1 0-32.178424c109.630061 0 233.037576-105.316848 245.201455-183.947636 6.081939-39.718788-16.849455-68.018424-68.142546-84.154182A16.228848 16.228848 0 0 1 527.515152 536.513939a15.949576 15.949576 0 0 1 13.156848-14.832484c106.52703-18.121697 195.739152-83.223273 238.654061-174.111031a16.197818 16.197818 0 0 1 26.996363-3.413333c2.637576 3.196121 63.767273 78.661818 63.767273 189.595151 0 176.221091-143.36 319.581091-319.612121 319.581091H361.875394z" fill="#000202" p-id="10195"></path><path d="M463.344485 825.37503h87.133091c160.768 0 291.529697-130.854788 291.529697-291.529697 0-73.293576-29.975273-130.358303-46.576485-156.392727-43.876848 79.499636-120.956121 138.395152-213.178182 163.746909 53.496242 29.789091 56.475152 74.038303 52.379152 100.32097-10.860606 70.62497-86.915879 146.40097-171.287273 183.854545m87.133091 23.769212h-188.664243a11.915636 11.915636 0 0 1-11.884606-11.884606c0-6.547394 5.368242-11.884606 11.915637-11.884606 111.460848 0 236.916364-107.426909 249.297454-187.547151 6.454303-42.046061-17.43903-71.897212-70.997333-88.777697a12.101818 12.101818 0 0 1-8.471273-12.25697 11.791515 11.791515 0 0 1 9.650424-10.984727c107.799273-18.338909 198.221576-84.247273 241.726061-176.469333a12.039758 12.039758 0 0 1 9.309091-6.702546 12.163879 12.163879 0 0 1 10.736485 4.220121c2.575515 3.134061 62.774303 77.544727 62.774303 186.895515 0 173.862788-141.498182 315.392-315.392 315.392M140.194909 242.222545a12.008727 12.008727 0 0 1-11.884606-11.884606 11.915636 11.915636 0 0 1 20.262788-8.502303 11.915636 11.915636 0 0 1-8.378182 20.386909" fill="#000202" p-id="10196"></path><path d="M355.545212 821.154909l-40.339394-57.561212-40.463515 57.561212h80.802909z m-111.709091 32.178424a16.166788 16.166788 0 0 1-13.094788-25.382788l71.245576-101.717333a15.887515 15.887515 0 0 1 13.156849-6.516364c5.368242 0 10.302061 2.420364 13.156848 6.516364l71.276606 101.717333a16.011636 16.011636 0 0 1 1.117091 16.663273 16.259879 16.259879 0 0 1-14.336 8.719515H243.836121z" fill="#000202" p-id="10197"></path><path d="M266.705455 825.37503h96.876606l-48.407273-69.073454L266.705455 825.406061z m119.652848 23.769212H243.836121a11.946667 11.946667 0 0 1-9.681454-18.804363l71.276606-101.686303c4.406303-6.361212 15.018667-6.361212 19.456 0l71.245575 101.686303a11.915636 11.915636 0 0 1-9.774545 18.804363z" fill="#000202" p-id="10198"></path><path d="M253.610667 229.779394a58.647273 58.647273 0 1 0 117.263515 0 58.647273 58.647273 0 0 0-117.294546 0" fill="#FFFFFF" p-id="10199"></path><path d="M312.257939 187.205818c-23.489939 0-42.573576 19.114667-42.573575 42.573576a42.604606 42.604606 0 0 0 85.116121 0c0-23.458909-19.083636-42.573576-42.542546-42.573576m0 117.387637A74.78303 74.78303 0 0 1 237.505939 229.872485 74.78303 74.78303 0 0 1 312.257939 155.151515 74.78303 74.78303 0 0 1 386.947879 229.872485a74.78303 74.78303 0 0 1-74.68994 74.72097" fill="#000202" p-id="10200"></path><path d="M312.257939 183.047758c-25.817212 0-46.762667 21.007515-46.762666 46.731636 0 25.817212 21.007515 46.731636 46.762666 46.731636 25.786182 0 46.731636-21.007515 46.731637-46.731636s-20.945455-46.731636-46.731637-46.731636m0 117.356606a70.593939 70.593939 0 0 1-70.562909-70.531879 70.593939 70.593939 0 0 1 70.562909-70.531879 70.593939 70.593939 0 0 1 70.500849 70.531879 70.593939 70.593939 0 0 1-70.500849 70.531879" fill="#000202" p-id="10201"></path><path d="M312.257939 236.730182a18.028606 18.028606 0 1 1 0-36.088243 18.028606 18.028606 0 0 1 0 36.088243" fill="#000202" p-id="10202"></path><path d="M298.418424 218.701576a13.839515 13.839515 0 1 0 27.648 0 13.839515 13.839515 0 0 0-27.648 0M600.622545 711.64897a16.166788 16.166788 0 0 1-13.280969-25.227637 15.949576 15.949576 0 0 1 10.30206-6.702545c235.923394-43.535515 230.555152-217.677576 230.462061-219.415273a16.135758 16.135758 0 0 1 15.204848-16.942545h0.062061c9.402182 0 16.446061 6.671515 16.911515 15.204848 0.093091 2.07903 6.516364 204.117333-256.775757 252.710788a12.412121 12.412121 0 0 1-2.885819 0.372364" fill="#000202" p-id="10203"></path><path d="M600.622545 707.428848a11.915636 11.915636 0 0 1-2.203151-23.58303c240.360727-44.373333 233.968485-221.928727 233.875394-223.759515a11.946667 11.946667 0 0 1 11.264-12.536242 11.977697 11.977697 0 0 1 12.536242 11.232969c0.093091 2.048 7.292121 200.269576-253.362424 248.366546a8.936727 8.936727 0 0 1-2.110061 0.310303M616.758303 816.562424c-35.250424 0-72.704-4.902788-111.274667-14.522182a16.135758 16.135758 0 0 1 7.819637-31.278545c35.715879 8.936727 70.283636 13.436121 102.710303 13.436121 70.718061 0 107.271758-21.193697 107.644121-21.410909a16.259879 16.259879 0 0 1 22.062545 5.461333 16.135758 16.135758 0 0 1-5.337212 22.031516c-1.737697 1.086061-43.473455 26.282667-123.624727 26.282666" fill="#000202" p-id="10204"></path><path d="M616.758303 812.373333c-30.968242 0-67.770182-3.785697-110.250667-14.39806a11.946667 11.946667 0 0 1 5.802667-23.148606c138.829576 34.691879 212.774788-8.005818 213.488485-8.471273a11.915636 11.915636 0 0 1 12.35006 20.355879c-2.358303 1.489455-43.473455 25.662061-121.390545 25.66206" fill="#000202" p-id="10205"></path></svg>