<?xml version="1.0" standalone="no"?><!DOCTYPE svg PUBLIC "-//W3C//DTD SVG 1.1//EN" "http://www.w3.org/Graphics/SVG/1.1/DTD/svg11.dtd"><svg t="1586441885644" class="icon" viewBox="0 0 1024 1024" version="1.1" xmlns="http://www.w3.org/2000/svg" p-id="9979" xmlns:xlink="http://www.w3.org/1999/xlink" width="200" height="200"><defs><style type="text/css"></style></defs><path d="M512 41.984a470.016 470.016 0 1 0 0.1024 939.9296A470.016 470.016 0 0 0 512 41.984z m334.2848 648.0384l-1.9968-0.0512a198.7072 198.7072 0 0 1-106.496-39.7824 183.6032 183.6032 0 0 1-41.6768-43.5712 257.0752 257.0752 0 0 1-32.512 32.1024c11.9808 14.5408 31.2832 27.5968 38.7072 31.8976l60.2624 34.816h-69.5808c-9.1136 1.2288-35.4304 30.3104-53.9136 59.8528l-5.4784 8.704h-10.3424c-35.6864 0-67.6864-36.1984-90.1632-70.9632a348.9792 348.9792 0 0 1-36.4544 6.8096c12.6976 21.1968 12.9536 31.5392 8.6016 40.2432a22.528 22.528 0 0 1-20.6336 12.2368c-7.9872 0.256-30.7712 15.36-48.5888 31.6416l-33.3312 30.3616 2.048-44.9536c0.6656-14.7968-6.0416-40.5504-18.5344-71.424a357.6832 357.6832 0 0 1-39.936-9.1648c-0.256-0.0512-0.256 0.0512-7.7824-2.8672l-42.8032-16.384a303.8208 303.8208 0 0 1-36.9664-20.8384 276.0192 276.0192 0 0 1-67.3792-61.8496 231.8336 231.8336 0 0 1-40.5504-80.0768 32.256 32.256 0 0 1-0.0512-16.9472 232.6528 232.6528 0 0 1 40.6016-80.2304 277.504 277.504 0 0 1 67.4304-61.8496 324.608 324.608 0 0 1 87.552-40.0384c10.4448-3.072 21.1968-5.632 32-7.7312 50.8416-70.2464 92.672-107.264 124.5184-109.9776 1.9968-0.1536 4.0448-0.256 6.144-0.256 56.832 0 173.0048 64 186.112 71.2704l31.0272 17.3056-31.9488 15.7184a399.4112 399.4112 0 0 0-70.3488 45.824c28.16 16.5888 52.736 37.0688 72.5504 60.3648 11.2128-16.384 25.2416-31.1808 41.5744-43.5712a198.8096 198.8096 0 0 1 106.5472-39.6288l1.9456-0.0512a28.16 28.16 0 0 1 26.4192 19.5584 31.9488 31.9488 0 0 1-6.9632 32.0512c-31.8976 32.3072-50.1248 79.6672-50.1248 129.8944 0 50.3808 18.176 97.7408 50.0224 129.9968 7.9872 7.9872 10.8032 20.48 7.168 31.6928a28.6208 28.6208 0 0 1-26.6752 19.8656z" fill="#30B0E6" p-id="9980"></path><path d="M826.2144 366.8992a160.9216 160.9216 0 0 0-65.792 29.3376c-19.968 15.1552-35.0208 33.8944-44.8 55.4496l-13.9264 30.6688-18.688-28.0576c-20.6848-31.1296-50.9952-58.0096-87.808-77.824a259.2256 259.2256 0 0 0-11.3152-5.6832l-22.3744-11.008 16.8448-18.3296c20.224-22.0672 47.616-41.0112 68.5056-53.76-42.6496-21.6064-106.9568-50.688-138.0352-50.688l-2.9696 0.0512c-14.848 1.3312-50.3808 28.416-101.7344 100.608l-4.4032 6.2976-7.5776 1.3312a330.24 330.24 0 0 0-35.4816 8.192 289.0752 289.0752 0 0 0-77.5168 35.4304A239.9744 239.9744 0 0 0 220.8256 442.368c-15.7184 20.3264-27.0848 42.496-33.792 65.8432 6.656 23.296 18.0224 45.5168 33.7408 65.8432a239.616 239.616 0 0 0 58.4192 53.504c9.8816 6.5536 20.5824 12.5952 31.7952 18.0224l40.7552 15.5136 5.376 2.0992c14.2848 4.096 29.5424 7.3728 44.8 9.5232l10.4448 1.4336 4.1984 9.6768c9.8816 23.1424 16.9472 43.52 21.0432 60.8768 8.4992-5.888 17.92-11.6736 27.136-15.4112a304.64 304.64 0 0 0-16.5376-24.1152l-21.1456-28.2624 35.2768-1.5872c25.4464-1.0752 50.3808-5.12 74.1888-11.776l13.824-3.9424 7.3728 12.3392c19.456 32.8192 40.6528 55.9616 56.6784 62.72 10.3936-15.4624 25.9584-35.9936 42.9056-50.1248-13.2096-10.8032-27.904-25.6-35.4816-42.3936l-6.0928-13.7216 12.0832-8.96a227.072 227.072 0 0 0 55.04-57.1392l18.5856-28.0064 13.9264 30.6176c9.9328 21.76 25.0368 40.448 44.9536 55.552 19.3024 14.6432 41.728 24.6784 65.792 29.44-30.5664-38.0416-47.8208-88.5248-47.8208-141.568 0.0512-52.8896 17.3056-103.424 47.9232-141.4656zM298.0352 496.4352a28.0064 28.0064 0 1 1 0-56.0128 28.0064 28.0064 0 0 1 0 56.0128z" fill="#30B0E6" p-id="9981"></path></svg>