<?xml version="1.0" standalone="no"?><!DOCTYPE svg PUBLIC "-//W3C//DTD SVG 1.1//EN" "http://www.w3.org/Graphics/SVG/1.1/DTD/svg11.dtd"><svg t="1586442287224" class="icon" viewBox="0 0 1024 1024" version="1.1" xmlns="http://www.w3.org/2000/svg" p-id="10464" xmlns:xlink="http://www.w3.org/1999/xlink" width="200" height="200"><defs><style type="text/css"></style></defs><path d="M558.54556 1024h-93.090888A465.058803 465.058803 0 0 1 0.000233 558.54556v-93.090888A465.058803 465.058803 0 0 1 465.454672 0.000233h93.090888a465.058803 465.058803 0 0 1 465.45444 465.454439v93.090888a465.058803 465.058803 0 0 1-465.45444 465.45444zM288.907803 519.540478A55.854533 55.854533 0 0 0 232.727453 575.697556v92.555616a79.127255 79.127255 0 0 0 79.127254 79.127255h399.336637a79.127255 79.127255 0 0 0 79.127255-79.127255v-92.555616a55.854533 55.854533 0 0 0-56.180351-56.18035h-63.371622a120.273427 120.273427 0 0 0 49.780352-229.864675l-89.460343 229.864675h-106.077067L618.612456 279.272897h-106.10034L418.909228 519.540478zM352.349244 279.272897a120.017427 120.017427 0 0 0-96.465433 190.83632 117.89961 117.89961 0 0 0 59.019623 43.170899L406.435049 279.272897z" fill="#FF222D" p-id="10465"></path></svg>